<mxfile host="" modified="2020-05-24T15:21:41.060Z" agent="5.0 (X11; Linux x86_64) AppleWebKit/537.36 (KHTML, like Gecko) Code/1.45.0 Chrome/78.0.3904.130 Electron/7.2.4 Safari/537.36" version="13.1.3" etag="lrwgP8mNOWNbAz78NI_h" pages="2">
            <diagram id="diagramid" name="Diagram">
              <mxGraphModel><root><mxCell id="0"/><mxCell id="1" parent="0"/><mxCell id="2" value="rS3Bucket" style="outlineConnect=0;fontColor=#B3B3B3;gradientColor=#60A337;gradientDirection=north;fillColor=#277116;strokeColor=#ffffff;dashed=0;verticalLabelPosition=bottom;verticalAlign=top;align=center;html=1;fontSize=12;fontStyle=0;aspect=fixed;shape=mxgraph.aws4.resourceIcon;resIcon=mxgraph.aws4.s3;" vertex="1" parent="1"><mxGeometry x="750" y="375" width="50" height="50" as="geometry"/></mxCell><mxCell id="3" value="rServiceCatalogPuppetLogsExporterCloudWatchRole" style="outlineConnect=0;fontColor=#B3B3B3;gradientColor=#F54749;gradientDirection=north;fillColor=#C7131F;strokeColor=#ffffff;dashed=0;verticalLabelPosition=bottom;verticalAlign=top;align=center;html=1;fontSize=12;fontStyle=0;aspect=fixed;shape=mxgraph.aws4.resourceIcon;resIcon=mxgraph.aws4.role;" vertex="1" parent="1"><mxGeometry x="250" y="425" width="50" height="50" as="geometry"/></mxCell><mxCell id="4" value="rCloudwatchRule" style="outlineConnect=0;fontColor=#B3B3B3;gradientColor=#F34482;gradientDirection=north;fillColor=#BC1356;strokeColor=#ffffff;dashed=0;verticalLabelPosition=bottom;verticalAlign=top;align=center;html=1;fontSize=12;fontStyle=0;aspect=fixed;shape=mxgraph.aws4.resourceIcon;resIcon=mxgraph.aws4.eventbridge;" vertex="1" parent="1"><mxGeometry y="387.5" width="50" height="50" as="geometry"/></mxCell><mxCell id="5" value="rCodeBuildLogs" style="outlineConnect=0;fontColor=#B3B3B3;gradientColor=#F34482;gradientDirection=north;fillColor=#BC1356;strokeColor=#ffffff;dashed=0;verticalLabelPosition=bottom;verticalAlign=top;align=center;html=1;fontSize=12;fontStyle=0;aspect=fixed;shape=mxgraph.aws4.resourceIcon;resIcon=mxgraph.aws4.cloudwatch;" vertex="1" parent="1"><mxGeometry x="1000" width="50" height="50" as="geometry"/></mxCell><mxCell id="6" value="rCodeBuildRole" style="outlineConnect=0;fontColor=#B3B3B3;gradientColor=#F54749;gradientDirection=north;fillColor=#C7131F;strokeColor=#ffffff;dashed=0;verticalLabelPosition=bottom;verticalAlign=top;align=center;html=1;fontSize=12;fontStyle=0;aspect=fixed;shape=mxgraph.aws4.resourceIcon;resIcon=mxgraph.aws4.role;" vertex="1" parent="1"><mxGeometry x="750" y="475" width="50" height="50" as="geometry"/></mxCell><mxCell id="7" value="rCodeBuildProject" style="outlineConnect=0;fontColor=#B3B3B3;gradientColor=#aaaaaa;gradientDirection=north;fillColor=#aaaaaa;strokeColor=#ffffff;dashed=0;verticalLabelPosition=bottom;verticalAlign=top;align=center;html=1;fontSize=12;fontStyle=0;aspect=fixed;shape=mxgraph.aws4.resourceIcon;resIcon=mxgraph.aws4.codebuild;" vertex="1" parent="1"><mxGeometry x="500" y="380" width="50" height="50" as="geometry"/></mxCell><mxCell id="8" value="s3  &#xA;scpuppet-logs--/*" style="outlineConnect=0;fontColor=#B3B3B3;gradientColor=#aaaaaa;gradientDirection=north;fillColor=#aaaaaa;strokeColor=#ffffff;dashed=0;verticalLabelPosition=bottom;verticalAlign=top;align=center;html=1;fontSize=12;fontStyle=0;aspect=fixed;shape=mxgraph.aws4.resourceIcon;resIcon=mxgraph.aws4.s3;" vertex="1" parent="1"><mxGeometry x="1000" y="100" width="50" height="50" as="geometry"/></mxCell><mxCell id="9" value="logs  &#xA;*" style="outlineConnect=0;fontColor=#B3B3B3;gradientColor=#aaaaaa;gradientDirection=north;fillColor=#aaaaaa;strokeColor=#ffffff;dashed=0;verticalLabelPosition=bottom;verticalAlign=top;align=center;html=1;fontSize=12;fontStyle=0;aspect=fixed;shape=mxgraph.aws4.resourceIcon;resIcon=mxgraph.aws4.cloudwatch;" vertex="1" parent="1"><mxGeometry x="1000" y="200" width="50" height="50" as="geometry"/></mxCell><mxCell id="10" value="s3  &#xA;codepipeline--*" style="outlineConnect=0;fontColor=#B3B3B3;gradientColor=#aaaaaa;gradientDirection=north;fillColor=#aaaaaa;strokeColor=#ffffff;dashed=0;verticalLabelPosition=bottom;verticalAlign=top;align=center;html=1;fontSize=12;fontStyle=0;aspect=fixed;shape=mxgraph.aws4.resourceIcon;resIcon=mxgraph.aws4.s3;" vertex="1" parent="1"><mxGeometry x="1000" y="300" width="50" height="50" as="geometry"/></mxCell><mxCell id="11" value="codebuild  &#xA;report-group/scpuppet-logs-pipeline*" style="outlineConnect=0;fontColor=#B3B3B3;gradientColor=#aaaaaa;gradientDirection=north;fillColor=#aaaaaa;strokeColor=#ffffff;dashed=0;verticalLabelPosition=bottom;verticalAlign=top;align=center;html=1;fontSize=12;fontStyle=0;aspect=fixed;shape=mxgraph.aws4.resourceIcon;resIcon=mxgraph.aws4.codebuild;" vertex="1" parent="1"><mxGeometry x="1000" y="400" width="50" height="50" as="geometry"/></mxCell><mxCell id="12" value="codebuild  &#xA;project/servicecatalog-puppet*" style="outlineConnect=0;fontColor=#B3B3B3;gradientColor=#aaaaaa;gradientDirection=north;fillColor=#aaaaaa;strokeColor=#ffffff;dashed=0;verticalLabelPosition=bottom;verticalAlign=top;align=center;html=1;fontSize=12;fontStyle=0;aspect=fixed;shape=mxgraph.aws4.resourceIcon;resIcon=mxgraph.aws4.codebuild;" vertex="1" parent="1"><mxGeometry x="1000" y="500" width="50" height="50" as="geometry"/></mxCell><mxCell id="13" value="ssm  &#xA;parameter/service-catalog-puppet-version" style="outlineConnect=0;fontColor=#B3B3B3;gradientColor=#aaaaaa;gradientDirection=north;fillColor=#aaaaaa;strokeColor=#ffffff;dashed=0;verticalLabelPosition=bottom;verticalAlign=top;align=center;html=1;fontSize=12;fontStyle=0;aspect=fixed;shape=mxgraph.aws4.resourceIcon;resIcon=mxgraph.aws4.ssm;" vertex="1" parent="1"><mxGeometry x="1000" y="600" width="50" height="50" as="geometry"/></mxCell><mxCell id="14" value="iam  &#xA;role/servicecatalog-puppet/puppetrole" style="outlineConnect=0;fontColor=#B3B3B3;gradientColor=#aaaaaa;gradientDirection=north;fillColor=#aaaaaa;strokeColor=#ffffff;dashed=0;verticalLabelPosition=bottom;verticalAlign=top;align=center;html=1;fontSize=12;fontStyle=0;aspect=fixed;shape=mxgraph.aws4.resourceIcon;resIcon=mxgraph.aws4.identity_and_access_management;" vertex="1" parent="1"><mxGeometry x="1000" y="700" width="50" height="50" as="geometry"/></mxCell><mxCell id="15" value="codepipeline  &#xA;servicecatalog-puppet-pipeline" style="outlineConnect=0;fontColor=#B3B3B3;gradientColor=#aaaaaa;gradientDirection=north;fillColor=#aaaaaa;strokeColor=#ffffff;dashed=0;verticalLabelPosition=bottom;verticalAlign=top;align=center;html=1;fontSize=12;fontStyle=0;aspect=fixed;shape=mxgraph.aws4.resourceIcon;resIcon=mxgraph.aws4.codepipeline;" vertex="1" parent="1"><mxGeometry x="1000" y="800" width="50" height="50" as="geometry"/></mxCell><mxCell id="rCodeBuildProject|rServiceCatalogPuppetLogsExporterCloudWatchRole" value="PolicyDocument" style="edgeStyle=orthogonalEdgeStyle;rounded=1;orthogonalLoop=1;jettySize=auto;html=1;labelBackgroundColor=none;fontColor=#EA6B66;noEdgeStyle=1;orthogonal=1;" edge="1" parent="1" source="3" target="7"><mxGeometry relative="1" as="geometry"><Array as="points"><mxPoint x="312" y="450"/><mxPoint x="488" y="415"/></Array></mxGeometry></mxCell><mxCell id="rCodeBuildProject|rCloudwatchRule" value="Arn" style="edgeStyle=orthogonalEdgeStyle;rounded=1;orthogonalLoop=1;jettySize=auto;html=1;labelBackgroundColor=none;fontColor=#EA6B66;noEdgeStyle=1;orthogonal=1;" edge="1" parent="1" source="4" target="7"><mxGeometry relative="1" as="geometry"><Array as="points"><mxPoint x="62" y="402.5"/><mxPoint x="150" y="375"/><mxPoint x="400" y="375"/><mxPoint x="488" y="395"/></Array></mxGeometry></mxCell><mxCell id="rServiceCatalogPuppetLogsExporterCloudWatchRole|rCloudwatchRule" value="RoleArn" style="edgeStyle=orthogonalEdgeStyle;rounded=1;orthogonalLoop=1;jettySize=auto;html=1;labelBackgroundColor=none;fontColor=#EA6B66;noEdgeStyle=1;orthogonal=1;" edge="1" parent="1" source="4" target="3"><mxGeometry relative="1" as="geometry"><Array as="points"><mxPoint x="62" y="422.5"/><mxPoint x="238" y="450"/></Array></mxGeometry></mxCell><mxCell id="s3  &#xA;scpuppet-logs--/*|rCodeBuildRole" value="PolicyDocument" style="edgeStyle=orthogonalEdgeStyle;rounded=1;orthogonalLoop=1;jettySize=auto;html=1;labelBackgroundColor=none;fontColor=#EA6B66;noEdgeStyle=1;orthogonal=1;" edge="1" parent="1" source="6" target="8"><mxGeometry relative="1" as="geometry"><Array as="points"><mxPoint x="814" y="483.3333333333333"/><mxPoint x="988" y="125"/></Array></mxGeometry></mxCell><mxCell id="logs  &#xA;*|rCodeBuildRole" value="PolicyDocument" style="edgeStyle=orthogonalEdgeStyle;rounded=1;orthogonalLoop=1;jettySize=auto;html=1;labelBackgroundColor=none;fontColor=#EA6B66;noEdgeStyle=1;orthogonal=1;" edge="1" parent="1" source="6" target="9"><mxGeometry relative="1" as="geometry"><Array as="points"><mxPoint x="816" y="488.88888888888886"/><mxPoint x="988" y="225"/></Array></mxGeometry></mxCell><mxCell id="s3  &#xA;codepipeline--*|rCodeBuildRole" value="PolicyDocument" style="edgeStyle=orthogonalEdgeStyle;rounded=1;orthogonalLoop=1;jettySize=auto;html=1;labelBackgroundColor=none;fontColor=#EA6B66;noEdgeStyle=1;orthogonal=1;" edge="1" parent="1" source="6" target="10"><mxGeometry relative="1" as="geometry"><Array as="points"><mxPoint x="818" y="494.4444444444444"/><mxPoint x="988" y="325"/></Array></mxGeometry></mxCell><mxCell id="codebuild  &#xA;report-group/scpuppet-logs-pipeline*|rCodeBuildRole" value="PolicyDocument" style="edgeStyle=orthogonalEdgeStyle;rounded=1;orthogonalLoop=1;jettySize=auto;html=1;labelBackgroundColor=none;fontColor=#EA6B66;noEdgeStyle=1;orthogonal=1;" edge="1" parent="1" source="6" target="11"><mxGeometry relative="1" as="geometry"><Array as="points"><mxPoint x="820" y="499.99999999999994"/><mxPoint x="988" y="425"/></Array></mxGeometry></mxCell><mxCell id="codebuild  &#xA;project/servicecatalog-puppet*|rCodeBuildRole" value="PolicyDocument" style="edgeStyle=orthogonalEdgeStyle;rounded=1;orthogonalLoop=1;jettySize=auto;html=1;labelBackgroundColor=none;fontColor=#EA6B66;noEdgeStyle=1;orthogonal=1;" edge="1" parent="1" source="6" target="12"><mxGeometry relative="1" as="geometry"><Array as="points"><mxPoint x="818" y="505.5555555555555"/><mxPoint x="988" y="525"/></Array></mxGeometry></mxCell><mxCell id="ssm  &#xA;parameter/service-catalog-puppet-version|rCodeBuildRole" value="PolicyDocument" style="edgeStyle=orthogonalEdgeStyle;rounded=1;orthogonalLoop=1;jettySize=auto;html=1;labelBackgroundColor=none;fontColor=#EA6B66;noEdgeStyle=1;orthogonal=1;" edge="1" parent="1" source="6" target="13"><mxGeometry relative="1" as="geometry"><Array as="points"><mxPoint x="816" y="511.11111111111103"/><mxPoint x="988" y="625"/></Array></mxGeometry></mxCell><mxCell id="iam  &#xA;role/servicecatalog-puppet/puppetrole|rCodeBuildRole" value="PolicyDocument" style="edgeStyle=orthogonalEdgeStyle;rounded=1;orthogonalLoop=1;jettySize=auto;html=1;labelBackgroundColor=none;fontColor=#EA6B66;noEdgeStyle=1;orthogonal=1;" edge="1" parent="1" source="6" target="14"><mxGeometry relative="1" as="geometry"><Array as="points"><mxPoint x="814" y="516.6666666666666"/><mxPoint x="988" y="725"/></Array></mxGeometry></mxCell><mxCell id="codepipeline  &#xA;servicecatalog-puppet-pipeline|rCodeBuildRole" value="PolicyDocument" style="edgeStyle=orthogonalEdgeStyle;rounded=1;orthogonalLoop=1;jettySize=auto;html=1;labelBackgroundColor=none;fontColor=#EA6B66;noEdgeStyle=1;orthogonal=1;" edge="1" parent="1" source="6" target="15"><mxGeometry relative="1" as="geometry"><Array as="points"><mxPoint x="812" y="522.2222222222222"/><mxPoint x="988" y="825"/></Array></mxGeometry></mxCell><mxCell id="rCodeBuildLogs|rCodeBuildRole" value="PolicyDocument" style="edgeStyle=orthogonalEdgeStyle;rounded=1;orthogonalLoop=1;jettySize=auto;html=1;labelBackgroundColor=none;fontColor=#EA6B66;noEdgeStyle=1;orthogonal=1;" edge="1" parent="1" source="6" target="5"><mxGeometry relative="1" as="geometry"><Array as="points"><mxPoint x="812" y="477.77777777777777"/><mxPoint x="988" y="35"/></Array></mxGeometry></mxCell><mxCell id="rCodeBuildLogs|rCodeBuildProject" value="GroupName" style="edgeStyle=orthogonalEdgeStyle;rounded=1;orthogonalLoop=1;jettySize=auto;html=1;labelBackgroundColor=none;fontColor=#EA6B66;noEdgeStyle=1;orthogonal=1;" edge="1" parent="1" source="7" target="5"><mxGeometry relative="1" as="geometry"><Array as="points"><mxPoint x="562" y="391.6666666666667"/><mxPoint x="650" y="215"/><mxPoint x="900" y="215"/><mxPoint x="988" y="15"/></Array></mxGeometry></mxCell><mxCell id="rS3Bucket|rCodeBuildProject" value="Variable&#xA;Location" style="edgeStyle=orthogonalEdgeStyle;rounded=1;orthogonalLoop=1;jettySize=auto;html=1;labelBackgroundColor=none;fontColor=#EA6B66;noEdgeStyle=1;orthogonal=1;" edge="1" parent="1" source="7" target="2"><mxGeometry relative="1" as="geometry"><Array as="points"><mxPoint x="564" y="405"/><mxPoint x="738" y="400"/></Array></mxGeometry></mxCell><mxCell id="rCodeBuildRole|rCodeBuildProject" value="ServiceRole" style="edgeStyle=orthogonalEdgeStyle;rounded=1;orthogonalLoop=1;jettySize=auto;html=1;labelBackgroundColor=none;fontColor=#EA6B66;noEdgeStyle=1;orthogonal=1;" edge="1" parent="1" source="7" target="6"><mxGeometry relative="1" as="geometry"><Array as="points"><mxPoint x="562" y="418.3333333333333"/><mxPoint x="738" y="500"/></Array></mxGeometry></mxCell></root></mxGraphModel>
            </diagram>
          </mxfile>